<?xml version="1.0" encoding="utf-8"?>
<svg xmlns="http://www.w3.org/2000/svg" height="512pt" version="1.1" viewBox="0 0 512 512" width="512pt">
<path d="M 0.00 0.00 L 512.00 0.00 L 512.00 512.00 L 0.00 512.00 L 0.00 0.00 Z" fill="transparent" opacity="1.00" stroke="transparent" stroke-width="0.25"/>
<path d="M 158.01 92.39 C 162.10 88.03 168.16 86.71 173.96 86.88 C 228.67 86.86 283.37 86.88 338.08 86.90 C 344.02 86.82 350.62 87.66 354.64 92.56 C 365.08 92.92 375.55 92.42 385.99 92.83 C 395.55 93.15 404.11 100.32 406.79 109.38 C 408.71 115.80 408.07 122.58 408.60 129.18 C 413.63 128.66 417.45 132.55 420.37 136.10 C 423.10 139.99 422.16 144.98 422.36 149.43 C 424.92 151.66 427.23 154.20 429.16 157.00 C 429.93 159.25 429.46 161.71 429.57 164.05 C 429.38 168.52 429.87 173.02 429.34 177.47 C 427.84 180.96 424.40 183.13 422.66 186.48 C 421.26 188.38 421.73 190.80 421.64 192.99 C 421.69 201.35 421.58 209.71 421.85 218.07 C 426.30 220.30 426.93 225.71 430.47 228.81 C 430.78 234.21 430.41 239.63 430.52 245.05 C 430.41 246.52 430.71 248.18 429.76 249.45 C 427.34 253.16 424.08 256.22 421.56 259.85 C 421.57 280.27 421.37 300.69 421.63 321.10 C 424.09 325.62 428.74 328.61 431.23 333.10 C 431.52 337.74 431.74 342.47 431.27 347.11 C 429.04 351.09 425.64 354.48 421.85 357.02 C 421.21 360.79 421.05 364.76 419.28 368.24 C 416.12 374.78 409.77 378.80 404.20 383.09 C 399.03 387.14 392.23 387.28 385.98 387.21 C 300.98 387.21 215.98 387.19 130.98 387.28 C 123.91 387.34 116.21 387.84 109.99 383.84 C 106.72 382.01 104.22 379.21 101.54 376.68 C 94.63 373.72 91.20 365.94 90.50 358.85 C 90.25 348.21 90.45 337.56 90.68 326.92 C 91.12 268.63 90.68 210.33 90.90 152.03 C 90.91 147.46 91.67 142.91 93.62 138.74 C 96.19 133.68 100.84 130.13 105.66 127.37 C 106.56 119.67 105.78 111.48 109.70 104.43 C 114.13 98.16 121.06 93.55 128.83 92.95 C 138.54 92.40 148.31 93.10 158.01 92.39 Z" fill="#0d0c0f" opacity="1.00" stroke="#0d0c0f" stroke-width="0.25"/>
<path d="M 162.73 94.66 C 164.91 93.35 167.32 92.24 169.93 92.43 C 227.81 92.55 285.69 92.37 343.57 92.52 C 348.66 92.12 352.72 97.07 352.30 101.93 C 351.98 106.52 351.59 111.10 351.37 115.70 C 349.22 115.73 347.07 115.73 344.92 115.64 C 344.86 112.53 345.05 109.07 343.00 106.50 C 341.07 104.33 338.64 102.55 335.86 101.67 C 331.62 101.14 327.32 101.61 323.06 101.52 C 274.69 101.50 226.32 101.54 177.95 101.45 C 174.83 101.28 171.92 102.64 169.42 104.39 C 168.41 105.45 167.55 106.63 166.63 107.76 C 166.08 110.38 165.69 113.02 165.54 115.70 C 162.75 115.76 159.95 115.75 157.16 115.64 C 157.72 108.43 159.44 101.13 162.73 94.66 Z" fill="#fefefe" opacity="1.00" stroke="#fefefe" stroke-width="0.25"/>
<path d="M 114.63 106.48 C 117.84 101.26 123.91 98.26 129.98 98.31 C 138.83 98.30 147.69 98.04 156.52 98.49 C 155.12 104.16 153.82 109.86 152.34 115.51 C 142.56 115.81 132.56 114.67 122.96 117.02 C 118.88 118.06 115.31 120.34 111.93 122.74 C 112.54 117.32 111.01 111.14 114.63 106.48 Z" fill="#fcfcfe" opacity="1.00" stroke="#fcfcfe" stroke-width="0.25"/>
<path d="M 357.33 98.24 C 366.80 98.27 376.28 98.05 385.75 98.28 C 391.55 98.43 396.88 102.10 399.64 107.11 C 402.48 111.69 401.67 117.34 401.69 122.47 C 397.09 119.08 391.88 116.17 386.05 115.83 C 376.22 115.51 366.38 115.97 356.55 115.57 C 356.70 109.79 356.26 103.95 357.33 98.24 Z" fill="#fdfbfc" opacity="1.00" stroke="#fdfbfc" stroke-width="0.25"/>
<path d="M 169.42 104.39 C 171.92 102.64 174.83 101.28 177.95 101.45 C 226.32 101.54 274.69 101.50 323.06 101.52 C 327.32 101.61 331.62 101.14 335.86 101.67 C 338.64 102.55 341.07 104.33 343.00 106.50 C 342.21 106.99 340.64 107.98 339.85 108.48 C 337.73 103.87 332.10 104.79 327.97 104.79 C 277.61 104.75 227.25 104.79 176.89 104.65 C 174.26 104.55 172.25 106.51 170.69 108.39 C 170.62 108.87 170.47 109.83 170.40 110.30 C 168.44 109.03 169.65 106.29 169.42 104.39 Z" fill="#030304" opacity="1.00" stroke="#030304" stroke-width="0.25"/>
<path d="M 170.69 108.39 C 172.25 106.51 174.26 104.55 176.89 104.65 C 227.25 104.79 277.61 104.75 327.97 104.79 C 332.10 104.79 337.73 103.87 339.85 108.48 C 340.61 110.82 340.21 113.33 340.30 115.75 C 310.87 116.05 281.42 115.73 251.99 115.87 C 224.74 115.73 197.48 115.99 170.24 115.75 C 170.23 113.93 170.21 112.11 170.40 110.30 C 170.47 109.83 170.62 108.87 170.69 108.39 Z" fill="#fcfcfc" opacity="1.00" stroke="#fcfcfc" stroke-width="0.25"/>
<path d="M 106.13 138.07 C 109.70 126.41 122.16 119.31 133.99 119.92 C 214.33 119.82 294.67 119.92 375.01 119.90 C 380.73 120.14 386.75 119.52 392.15 121.80 C 396.71 123.95 401.12 126.91 403.75 131.32 C 405.66 134.51 407.17 137.95 408.37 141.46 C 408.26 211.38 408.25 281.33 408.25 351.26 C 306.97 350.90 205.68 351.32 104.39 351.08 C 104.50 293.07 104.39 235.06 104.50 177.05 C 104.67 165.43 104.23 153.79 104.89 142.18 C 105.17 140.78 105.61 139.41 106.13 138.07 Z" fill="#fbfbfb" opacity="1.00" stroke="#fbfbfb" stroke-width="0.25"/>
<path d="M 410.43 134.62 C 410.61 134.44 410.95 134.07 411.12 133.89 C 412.77 137.28 417.69 138.62 417.39 143.00 C 417.40 214.66 417.13 286.32 417.09 357.98 C 417.28 361.19 416.33 364.23 414.09 366.57 C 413.73 366.59 413.01 366.62 412.65 366.64 C 412.01 342.11 412.52 317.56 412.37 293.02 C 412.40 243.67 412.21 194.32 412.53 144.98 C 412.76 141.36 411.90 137.89 410.43 134.62 Z" fill="#fefeff" opacity="1.00" stroke="#fefeff" stroke-width="0.25"/>
<path d="M 370.05 135.00 C 382.93 133.20 396.22 143.82 396.54 156.98 C 397.68 169.45 387.37 181.64 374.89 182.59 C 364.88 183.73 354.66 177.47 350.75 168.25 C 348.58 162.75 348.23 156.48 350.11 150.85 C 352.95 142.29 361.22 136.15 370.05 135.00 Z" fill="#0d0d0f" opacity="1.00" stroke="#0d0d0f" stroke-width="0.25"/>
<path d="M 95.10 155.02 C 94.61 148.06 96.30 140.55 101.67 135.73 C 101.28 138.51 100.28 141.20 100.31 144.03 C 100.55 186.36 100.23 228.69 100.42 271.02 C 100.53 304.02 100.14 337.04 100.58 370.04 C 97.93 368.74 97.17 365.54 96.01 363.07 C 94.17 358.95 94.98 354.38 94.83 350.03 C 94.63 324.69 95.20 299.37 95.11 274.03 C 94.59 261.68 95.45 249.33 94.94 236.98 C 95.33 209.66 95.01 182.34 95.10 155.02 Z" fill="#ffffff" opacity="1.00" stroke="#ffffff" stroke-width="0.25"/>
<path d="M 212.81 152.62 C 237.62 137.51 270.05 135.94 296.03 149.07 C 314.34 158.56 329.62 173.92 338.93 192.34 C 346.30 192.97 353.72 192.04 361.09 192.72 C 367.93 194.16 373.15 201.01 372.78 208.01 C 372.67 222.36 372.53 236.73 372.26 251.08 C 372.21 258.92 366.66 265.94 359.23 268.22 C 352.51 268.73 345.77 268.28 339.05 268.64 C 327.10 296.84 300.64 319.36 270.06 324.11 C 253.43 326.04 236.04 324.27 220.81 317.03 C 201.85 307.83 186.33 291.75 177.83 272.46 L 177.09 273.72 C 176.67 273.48 175.84 272.98 175.42 272.74 C 169.44 272.16 163.14 273.81 157.39 271.51 C 151.28 269.00 147.47 262.40 147.73 255.88 C 147.68 238.94 147.74 221.99 147.73 205.04 C 147.54 197.81 151.89 190.48 158.85 188.03 C 165.75 185.83 173.12 187.05 180.24 186.77 C 187.70 172.68 199.13 160.78 212.81 152.62 Z" fill="#0f0e10" opacity="1.00" stroke="#0f0e10" stroke-width="0.25"/>
<path d="M 366.57 140.81 C 371.19 139.19 376.35 139.62 380.83 141.48 C 387.72 144.76 392.65 152.34 391.72 160.10 C 390.91 166.47 387.09 172.61 381.19 175.45 C 371.80 180.67 358.76 175.70 355.21 165.57 C 351.17 155.94 356.71 144.06 366.57 140.81 Z" fill="#fdfdff" opacity="1.00" stroke="#fdfdff" stroke-width="0.25"/>
<path d="M 103.27 143.24 C 103.68 142.98 104.48 142.45 104.89 142.18 C 104.23 153.79 104.67 165.43 104.50 177.05 C 104.39 235.06 104.50 293.07 104.39 351.08 L 104.36 352.29 C 102.80 351.44 103.32 349.47 103.16 348.02 C 103.30 279.76 103.01 211.50 103.27 143.24 Z" fill="#030304" opacity="1.00" stroke="#030304" stroke-width="0.25"/>
<path d="M 249.86 144.57 C 265.97 143.31 282.70 146.01 296.83 154.13 C 321.15 167.44 339.68 192.08 343.08 219.90 C 344.40 231.54 344.03 243.59 340.49 254.84 C 335.03 272.98 324.52 289.77 309.71 301.72 C 292.05 316.56 267.91 323.62 245.08 319.86 C 220.62 316.74 198.57 300.99 186.27 279.82 C 181.12 271.80 178.22 262.56 175.93 253.37 C 177.76 253.82 180.58 253.86 181.02 256.17 C 185.03 269.02 192.44 280.62 201.38 290.60 C 213.43 304.30 230.87 312.62 248.81 315.08 C 268.83 317.08 289.42 310.61 305.22 298.28 C 311.24 293.27 316.46 287.41 321.19 281.20 C 332.41 265.65 338.72 246.26 337.55 227.02 C 337.09 213.95 333.01 201.05 325.97 190.03 C 316.10 173.79 300.23 161.48 282.32 155.27 C 264.45 148.65 243.79 149.26 226.62 157.70 C 218.76 161.44 210.82 165.41 204.36 171.36 C 194.75 180.06 186.63 190.68 182.12 202.92 C 181.08 206.48 178.32 208.94 175.70 211.38 C 178.57 196.18 186.13 181.95 196.64 170.63 C 210.66 156.16 229.75 146.52 249.86 144.57 Z" fill="#fefeff" opacity="1.00" stroke="#fefeff" stroke-width="0.25"/>
<path d="M 365.15 148.14 C 368.18 145.60 372.28 145.30 376.06 145.69 C 378.86 147.12 381.95 148.53 383.64 151.34 C 386.56 156.21 386.15 163.12 382.12 167.26 C 376.61 173.23 365.24 171.85 361.58 164.48 C 358.12 159.22 359.96 151.56 365.15 148.14 Z" fill="#111013" opacity="1.00" stroke="#111013" stroke-width="0.25"/>
<path d="M 246.70 153.95 C 262.04 151.74 277.81 154.65 291.58 161.69 C 312.72 172.09 328.90 192.38 333.68 215.53 C 336.58 231.59 335.27 248.67 328.44 263.61 C 324.02 274.57 316.78 284.19 308.30 292.34 C 293.90 306.05 273.84 313.59 253.97 312.72 C 234.89 312.15 216.31 303.58 203.36 289.57 C 194.23 279.70 186.86 267.85 183.11 254.89 C 180.61 250.09 177.50 245.31 177.33 239.71 C 177.12 232.77 177.31 225.81 177.57 218.87 C 177.55 214.79 180.41 211.59 182.21 208.17 C 184.16 204.34 185.57 200.26 187.49 196.41 C 194.04 183.99 203.87 173.22 215.90 165.95 C 225.57 160.63 235.62 155.47 246.70 153.95 Z" fill="#fbfbfb" opacity="1.00" stroke="#fbfbfb" stroke-width="0.25"/>
<path d="M 422.39 161.98 C 422.42 160.26 422.14 158.38 423.12 156.86 C 423.86 158.50 424.98 160.10 424.80 162.00 C 424.71 166.31 425.15 170.65 424.66 174.94 C 424.73 176.23 423.36 176.54 422.49 177.02 C 422.25 172.01 422.47 167.00 422.39 161.98 Z" fill="#fefefe" opacity="1.00" stroke="#fefefe" stroke-width="0.25"/>
<path d="M 427.31 158.72 C 428.38 164.53 428.18 170.58 427.33 176.41 C 427.07 170.52 426.80 164.60 427.31 158.72 Z" fill="#1e1d22" opacity="1.00" stroke="#1e1d22" stroke-width="0.25"/>
<path d="M 250.51 179.74 C 261.95 178.00 274.01 179.90 283.98 185.93 C 298.34 194.57 309.06 210.03 309.90 227.04 C 311.25 239.55 307.86 252.34 300.74 262.69 C 291.37 276.60 274.92 285.66 258.04 285.30 C 244.22 285.56 231.01 279.32 221.08 269.97 C 211.81 260.39 205.43 247.49 205.52 233.98 C 204.64 218.79 211.11 203.52 222.14 193.13 C 229.92 185.90 239.95 181.09 250.51 179.74 Z" fill="#100f12" opacity="1.00" stroke="#100f12" stroke-width="0.25"/>
<path d="M 250.41 185.73 C 260.28 184.26 270.86 185.22 279.60 190.32 C 291.49 196.82 300.20 208.69 303.00 221.92 C 304.92 232.36 303.92 243.49 299.03 253.01 C 292.97 266.58 279.37 276.01 264.85 278.27 C 254.59 279.61 243.64 278.05 234.85 272.35 C 225.05 266.44 217.44 256.96 214.06 246.00 C 209.42 232.16 212.06 216.21 220.61 204.41 C 227.42 194.45 238.55 187.68 250.41 185.73 Z" fill="#fefdff" opacity="1.00" stroke="#fefdff" stroke-width="0.25"/>
<path d="M 156.36 194.35 C 162.34 189.24 170.79 191.43 177.96 190.83 C 172.15 203.71 169.64 217.87 170.18 231.97 C 169.67 244.30 172.15 256.53 176.00 268.19 C 170.38 268.06 164.69 268.55 159.14 267.48 C 154.51 265.75 151.34 260.93 151.54 255.99 C 151.76 239.00 151.74 222.00 151.60 205.01 C 151.44 200.96 153.07 196.82 156.36 194.35 Z" fill="#fcfcfc" opacity="1.00" stroke="#fcfcfc" stroke-width="0.25"/>
<path d="M 250.53 191.82 C 259.24 190.48 268.59 191.09 276.41 195.48 C 288.06 201.12 296.38 213.04 297.66 225.92 C 298.48 234.75 297.35 244.03 292.88 251.82 C 288.50 259.81 281.10 265.83 272.88 269.56 C 261.45 274.17 247.80 273.07 237.38 266.42 C 227.68 260.00 220.16 249.77 218.52 238.10 C 217.53 229.00 218.66 219.43 223.23 211.38 C 228.76 201.21 239.13 193.81 250.53 191.82 Z" fill="#121013" opacity="1.00" stroke="#121013" stroke-width="0.25"/>
<path d="M 340.50 196.66 C 346.33 196.60 352.17 196.61 358.01 196.56 C 362.44 196.32 367.28 200.22 366.86 204.91 C 366.51 219.60 366.55 234.29 366.38 248.98 C 366.65 253.23 363.63 257.34 359.81 258.97 C 354.31 259.46 348.73 258.93 343.21 259.33 C 344.09 254.73 345.69 250.29 346.35 245.65 C 348.72 229.20 347.04 212.01 340.50 196.66 Z" fill="#fcfbfd" opacity="1.00" stroke="#fcfbfd" stroke-width="0.25"/>
<path d="M 238.19 226.03 C 240.02 217.03 248.94 210.39 258.03 210.67 C 265.27 210.74 271.70 215.69 275.04 221.89 C 277.81 226.77 277.65 232.82 275.77 237.99 C 272.35 246.41 263.10 252.43 253.93 250.60 C 242.92 248.89 235.51 236.67 238.19 226.03 Z" fill="#fdfdfe" opacity="1.00" stroke="#fdfdfe" stroke-width="0.25"/>
<path d="M 158.41 216.45 C 160.43 216.27 162.46 216.17 164.49 216.12 C 164.64 226.22 164.55 236.34 164.44 246.45 C 162.49 246.43 160.56 246.40 158.62 246.35 C 157.13 242.73 158.09 238.76 157.87 234.97 C 158.06 228.80 157.55 222.58 158.41 216.45 Z" fill="#0f0f10" opacity="1.00" stroke="#0f0f10" stroke-width="0.25"/>
<path d="M 243.10 230.01 C 242.87 220.77 253.50 213.44 262.10 216.59 C 269.05 218.96 273.69 226.90 271.66 234.10 C 270.78 238.59 267.39 242.00 263.60 244.27 C 260.26 245.36 256.58 246.06 253.20 244.75 C 247.04 242.84 242.57 236.49 243.10 230.01 Z" fill="#121013" opacity="1.00" stroke="#121013" stroke-width="0.25"/>
<path d="M 352.15 215.72 C 353.72 215.72 355.30 215.74 356.87 215.78 C 357.41 221.16 357.02 226.57 357.11 231.97 C 356.96 236.82 357.45 241.69 356.75 246.51 C 355.03 246.49 353.32 246.48 351.60 246.47 C 351.24 236.23 351.49 225.94 352.15 215.72 Z" fill="#0f0f11" opacity="1.00" stroke="#0f0f11" stroke-width="0.25"/>
<path d="M 422.49 226.92 C 424.53 228.15 425.88 230.52 425.78 232.92 C 425.79 237.31 426.05 241.73 425.45 246.10 C 424.53 247.14 423.61 248.19 422.48 249.00 C 422.08 241.66 422.20 234.27 422.49 226.92 Z" fill="#ffffff" opacity="1.00" stroke="#ffffff" stroke-width="0.25"/>
<path d="M 141.52 298.71 C 151.98 295.90 163.50 302.59 166.58 312.86 C 169.08 321.21 166.52 330.95 159.65 336.49 C 154.50 340.53 147.44 342.34 141.07 340.47 C 131.83 337.95 125.11 328.53 125.64 318.97 C 125.56 309.67 132.36 300.70 141.52 298.71 Z" fill="#100f11" opacity="1.00" stroke="#100f11" stroke-width="0.25"/>
<path d="M 142.01 307.12 C 148.09 304.76 155.84 307.65 158.28 313.84 C 160.47 318.49 159.13 324.10 155.92 327.92 C 151.67 332.58 143.62 333.35 138.74 329.27 C 134.51 326.03 132.81 320.06 134.47 315.02 C 135.38 311.27 138.66 308.67 142.01 307.12 Z" fill="#fcfcfc" opacity="1.00" stroke="#fcfcfc" stroke-width="0.25"/>
<path d="M 334.13 311.24 C 346.09 311.14 358.06 311.16 370.03 311.23 C 377.57 311.34 383.29 319.30 381.91 326.51 C 380.90 332.62 375.26 337.71 368.98 337.62 C 359.33 337.69 349.68 337.58 340.03 337.66 C 336.53 337.64 332.81 337.87 329.61 336.18 C 325.33 333.75 321.92 329.16 322.23 324.05 C 321.70 317.43 327.61 311.37 334.13 311.24 Z" fill="#09090a" opacity="1.00" stroke="#09090a" stroke-width="0.25"/>
<path d="M 329.11 318.07 C 332.03 314.53 336.92 315.43 340.95 315.33 C 351.29 315.57 361.67 314.94 371.99 315.64 C 374.58 317.35 377.13 319.72 377.48 322.99 C 378.06 325.90 376.50 328.57 374.90 330.86 C 373.18 332.10 371.27 333.27 369.06 333.12 C 358.36 333.13 347.67 333.13 336.97 333.19 C 335.20 333.27 333.47 332.91 331.76 332.50 C 326.90 329.57 324.50 322.32 329.11 318.07 Z" fill="#fdfdfe" opacity="1.00" stroke="#fdfdfe" stroke-width="0.25"/>
<path d="M 334.42 326.17 C 334.80 325.58 335.54 324.38 335.92 323.78 C 344.28 323.78 352.64 323.79 361.01 323.80 C 363.87 323.83 366.78 323.56 369.58 324.30 C 369.59 324.90 369.61 326.11 369.63 326.72 C 361.14 327.77 352.53 326.88 343.99 327.20 C 340.81 326.96 337.28 328.02 334.42 326.17 Z" fill="#0c0c0c" opacity="1.00" stroke="#0c0c0c" stroke-width="0.25"/>
<path d="M 422.59 327.94 C 423.53 330.54 425.17 332.77 426.58 335.12 C 427.41 338.36 427.88 342.09 426.48 345.23 C 425.09 345.99 423.80 346.90 422.52 347.83 C 421.95 341.23 422.10 334.54 422.59 327.94 Z" fill="#ffffff" opacity="1.00" stroke="#ffffff" stroke-width="0.25"/>
<path d="M 104.59 355.30 C 205.78 355.33 306.97 355.35 408.16 355.33 C 408.10 360.75 408.51 366.26 407.41 371.61 C 405.00 377.82 398.79 382.60 392.01 382.58 C 301.65 382.74 211.29 382.56 120.94 382.66 C 114.25 382.43 108.18 377.48 105.75 371.36 C 103.88 366.20 104.98 360.65 104.59 355.30 Z" fill="#fbfbfb" opacity="1.00" stroke="#fbfbfb" stroke-width="0.25"/>
<path d="M 122.47 363.73 C 124.87 359.70 130.95 357.97 134.53 361.47 C 138.09 364.98 136.15 371.13 132.11 373.40 C 129.43 373.65 126.28 374.01 124.49 371.54 C 122.10 369.64 122.41 366.44 122.47 363.73 Z" fill="#070707" opacity="1.00" stroke="#070707" stroke-width="0.25"/>
<path d="M 259.18 366.92 C 258.81 361.32 265.94 358.88 270.14 361.63 C 273.88 364.87 273.58 371.48 269.13 373.96 C 264.49 376.74 258.02 372.30 259.18 366.92 Z" fill="#0d0d0e" opacity="1.00" stroke="#0d0d0e" stroke-width="0.25"/>
<path d="M 126.80 363.70 C 128.94 362.88 132.44 362.99 132.60 366.00 C 133.32 368.42 131.12 369.77 129.13 370.25 C 128.49 370.02 127.21 369.55 126.57 369.31 C 125.63 367.47 125.71 365.46 126.80 363.70 Z" fill="#ffffff" opacity="1.00" stroke="#ffffff" stroke-width="0.25"/>
<path d="M 264.33 365.11 C 265.42 365.17 266.51 365.23 267.60 365.30 C 267.62 366.67 267.57 368.06 267.43 369.43 C 266.50 369.43 265.57 369.44 264.65 369.45 C 264.36 369.09 263.79 368.38 263.51 368.02 C 263.78 367.05 264.05 366.08 264.33 365.11 Z" fill="#ffffff" opacity="1.00" stroke="#ffffff" stroke-width="0.25"/>
<path d="M 118.31 394.43 C 208.22 394.37 298.13 394.58 388.03 394.38 C 392.83 394.53 398.45 393.23 402.39 396.76 C 406.17 399.39 407.12 404.78 405.42 408.88 C 403.14 413.46 398.20 416.49 393.03 416.15 C 304.35 416.26 215.66 416.12 126.98 416.19 C 123.45 416.16 119.85 416.37 116.42 415.41 C 110.64 413.18 107.43 406.30 109.46 400.43 C 110.45 399.17 111.42 397.90 112.40 396.64 C 114.31 395.77 116.16 394.53 118.31 394.43 Z" fill="#0d0d10" opacity="1.00" stroke="#0d0d10" stroke-width="0.25"/>
<path d="M 115.74 400.51 C 116.86 400.09 117.95 399.52 119.15 399.36 C 187.43 399.46 255.72 399.25 324.00 399.37 C 347.62 399.64 371.25 399.22 394.87 399.38 C 397.60 399.47 400.51 401.29 400.81 404.20 C 401.45 407.94 397.79 411.22 394.17 411.02 C 303.09 410.73 211.98 410.97 120.89 410.86 C 118.16 411.16 116.24 409.17 114.44 407.47 C 114.00 405.03 114.20 402.54 115.74 400.51 Z" fill="#fcfcfc" opacity="1.00" stroke="#fcfcfc" stroke-width="0.25"/>
</svg>